<svg xmlns="http://www.w3.org/2000/svg" viewBox="0 0 1400 260">
  <defs>
    <linearGradient id="bg" x1="0" y1="0" x2="1" y2="1">
      <stop offset="0" stop-color="#ffffff"/>
      <stop offset="1" stop-color="#dbfaf5"/>
    </linearGradient>
    <linearGradient id="panel" x1="0" y1="0" x2="1" y2="0">
      <stop offset="0" stop-color="#14b8a6" stop-opacity="0"/>
      <stop offset="1" stop-color="#14b8a6" stop-opacity="0.2"/>
    </linearGradient>
  </defs>
  <rect width="1400" height="260" fill="url(#bg)"/>
  <rect x="960" width="440" height="260" fill="url(#panel)"/>

  <path d="M470,-10 C560,55 600,15 690,85 C735,120 715,175 795,215" stroke="#FF9933" stroke-width="12" fill="none" opacity="0.5" stroke-linecap="round"/>
  <path d="M470,10 C560,75 600,35 690,105 C735,140 715,195 795,235" stroke="#FFFFFF" stroke-width="12" fill="none" opacity="0.9" stroke-linecap="round"/>
  <path d="M470,30 C560,95 600,55 690,125 C735,160 715,215 795,255" stroke="#128807" stroke-width="12" fill="none" opacity="0.5" stroke-linecap="round"/>

  <g transform="translate(742,130)">
    <circle r="44" fill="#fff" stroke="#0b2a6b" stroke-width="3"/>
    <circle r="34" fill="none" stroke="#0b2a6b" stroke-width="2.5" stroke-dasharray="1.6 4.3"/>
    <circle r="6" fill="#0b2a6b"/>
  </g>

  <g transform="translate(50,50) scale(0.42)" fill="#0d7d6f" stroke="#0d7d6f" stroke-linecap="round" stroke-linejoin="round">
    <path d="M25 15 v20 a15 15 0 0 0 30 0 v-20" stroke-width="5" fill="none"/>
    <path d="M40 50 v14 a20 20 0 0 0 40 0 v-8" stroke-width="5" fill="none"/>
    <circle cx="80" cy="60" r="8" fill="#0d7d6f" stroke="none"/>
  </g>

  <text x="98" y="98" font-family="'Outfit','Inter',sans-serif" font-weight="700" font-size="30" fill="#0a5951">Complete Care,</text>
  <text x="98" y="136" font-family="'Outfit','Inter',sans-serif" font-weight="700" font-size="30" fill="#14b8a6">Every Single Day.</text>
  <text x="46" y="232" font-family="'Inter',sans-serif" font-size="15" fill="#33564f">Celebrating 79 years of Independence &#8226; Special primary-care check-ups this August</text>

  <g transform="translate(1095,50) scale(1.9)" fill="none" stroke="#14b8a6" stroke-width="4" stroke-linecap="round" stroke-linejoin="round" opacity="0.24">
    <path d="M25 15 v20 a15 15 0 0 0 30 0 v-20"/>
    <path d="M40 50 v14 a20 20 0 0 0 40 0 v-8"/>
    <circle cx="80" cy="60" r="8" fill="#14b8a6" stroke="none"/>
  </g>
</svg>
